<?xml version="1.0" encoding="UTF-8" standalone="no"?>
<!-- Created with Inkscape (http://www.inkscape.org/) -->

<svg
   xmlns:dc="http://purl.org/dc/elements/1.1/"
   xmlns:cc="http://creativecommons.org/ns#"
   xmlns:rdf="http://www.w3.org/1999/02/22-rdf-syntax-ns#"
   xmlns:svg="http://www.w3.org/2000/svg"
   xmlns="http://www.w3.org/2000/svg"
   xmlns:sodipodi="http://sodipodi.sourceforge.net/DTD/sodipodi-0.dtd"
   xmlns:inkscape="http://www.inkscape.org/namespaces/inkscape"
   id="svg2"
   version="1.1"
   inkscape:version="0.91 r13725"
   xml:space="preserve"
   width="1735.8588"
   height="1856.3046"
   viewBox="0 0 1735.8588 1856.3046"
   sodipodi:docname="fairskill.svg"
   inkscape:export-filename="/home/eric/data/WORK/PROJECT/TOOL/FAIRSKILL/LOGO/fairskill.png"
   inkscape:export-xdpi="90"
   inkscape:export-ydpi="90"><metadata
     id="metadata8"><rdf:RDF><cc:Work
         rdf:about=""><dc:format>image/svg+xml</dc:format><dc:type
           rdf:resource="http://purl.org/dc/dcmitype/StillImage" /><dc:title></dc:title></cc:Work></rdf:RDF></metadata><defs
     id="defs6"><clipPath
       clipPathUnits="userSpaceOnUse"
       id="clipPath18"><path
         d="M 14670,0 0,0 l 0,14670 14670,0 0,-14670 m -7546.13,3502.22 0,0 c 69.92,-3.8 140.27,-5.75 211.1,-5.75 2120,0 3838.53,1718.56 3838.53,3838.56 l 0,0 0,0 c 0,98.02 -3.7,195.24 -10.9,291.42 -148.9,1983.8 -1805.71,3547.05 -3827.63,3547.05 -2011.51,0 -3661.63,-1547.27 -3825.23,-3516.55 -8.76,-106.13 641.21,-499.76 641.21,-608.18 0,-794.31 0,-1111.89 0,-1858.3 l 0,-0.03 C 4803.77,4223.13 5885.78,3569.31 7123.87,3502.22"
         id="path20"
         inkscape:connector-curvature="0" /></clipPath><radialGradient
       fx="0"
       fy="0"
       cx="0"
       cy="0"
       r="1"
       gradientUnits="userSpaceOnUse"
       gradientTransform="matrix(11598.841,0,0,-11598.841,7405.8096,7370.3952)"
       spreadMethod="pad"
       id="radialGradient22"><stop
         style="stop-opacity:1;stop-color:#ffffff"
         offset="0"
         id="stop24" /><stop
         style="stop-opacity:1;stop-color:#ffffff"
         offset="0.17783542"
         id="stop26" /><stop
         style="stop-opacity:1;stop-color:#ffffff"
         offset="0.403226"
         id="stop28" /><stop
         style="stop-opacity:1;stop-color:#ffffff"
         offset="0.66642221"
         id="stop30" /><stop
         style="stop-opacity:1;stop-color:#918f90"
         offset="1"
         id="stop32" /></radialGradient></defs><sodipodi:namedview
     pagecolor="#ffffff"
     bordercolor="#666666"
     borderopacity="1"
     objecttolerance="10"
     gridtolerance="10"
     guidetolerance="10"
     inkscape:pageopacity="0"
     inkscape:pageshadow="2"
     inkscape:window-width="1920"
     inkscape:window-height="1056"
     id="namedview4"
     showgrid="false"
     inkscape:zoom="0.30359799"
     inkscape:cx="740.05015"
     inkscape:cy="1173.3263"
     inkscape:window-x="0"
     inkscape:window-y="0"
     inkscape:window-maximized="1"
     inkscape:current-layer="g10"
     fit-margin-top="100"
     fit-margin-left="200"
     fit-margin-right="200"
     fit-margin-bottom="100" /><g
     id="g10"
     inkscape:groupmode="layer"
     inkscape:label="ink_ext_XXXXXX"
     transform="matrix(1.25,0,0,-1.25,-101.98785,2004.3669)"><path
       inkscape:connector-curvature="0"
       id="path36"
       style="fill:#ed1c24;fill-opacity:1;fill-rule:nonzero;stroke:none"
       d="m 723.33794,790.35676 0,0" /><path
       inkscape:connector-curvature="0"
       id="path38"
       style="fill:#ed1c24;fill-opacity:1;fill-rule:nonzero;stroke:none"
       d="m 1288.6889,1009.8664 c 0,-283.68024 -229.9589,-513.64316 -513.63907,-513.64316 -9.4779,0 -18.8915,0.26094 -28.2476,0.76943 -165.6706,8.97739 -310.4559,96.46597 -397.8107,225.90309 l 0,0 c 0,99.8782 0,142.3741 0,248.6618 0,14.5078 -86.97338,67.18004 -85.80117,81.38144 21.89156,263.5121 242.69647,470.5545 511.85947,470.5545 270.55587,0 492.25597,-209.1806 512.18057,-474.6357 0.9634,-12.87 1.4585,-25.8792 1.4585,-38.9954" /><path
       inkscape:connector-curvature="0"
       id="path42"
       style="fill:#ffffff;fill-opacity:1;fill-rule:nonzero;stroke:none"
       d="m 927.17554,918.28986 c 4.6526,-10.0894 20.8184,-29.7637 14.0355,-50.4308 -7.844,-23.9162 -33.1317,-27.0768 -33.1317,-38.7478 0,-5.8088 3.542,-28.8043 -0.372,-38.0693 -8.4863,-20.0905 -38.8414,-39.0784 -74.3577,-42.5106 -50.5887,-4.8962 -133.062,-13.8896 -320.3632,20.0476 l -0.01,0 c -1.4171,-0.1177 -6.7869,-0.3546 -24.0018,-0.6503 -10.729,-0.182 5.8355,-44.1257 5.8355,-44.1257 -31.8029,-0.5874 -76.6351,-0.8483 -121.7777,-0.9072 l 0,0.01 c -55.29622,81.9287 -87.57688,180.6761 -87.57688,286.96264 0,14.5091 0.60883,28.8751 1.77567,43.0765 66.46681,-0.198 139.51851,-0.103 185.07991,0.9113 0,0 -12.3775,-20.0409 2.1236,-19.6863 41.8,1.0223 39.7728,1.9335 43.395,2.5062 14.3071,2.2561 33.9694,10.5859 52.691,53.3667 35.1616,80.3431 38.5029,103.7815 68.6412,123.8692 15.7121,10.4761 30.5197,22.7747 41.3317,48.789 8.5733,20.6351 14.6349,49.897 16.6314,93.7269 0.3078,6.823 7.0425,27.9345 15.0725,29.6606 19.8001,4.2418 54.5389,-2.0741 70.3808,-52.7939 3.3961,-10.8548 9.0952,-50.3252 -1.8948,-80.7191 -7.6941,-22.119 -20.0168,-48.8519 -36.0407,-77.1744 -24.0647,-36.2495 4.7315,-45.1908 8.6214,-45.1908 148.7274,0 148.7274,0 148.7274,0 0,0 16.6395,1.8627 31.0456,-8.2241 13.9953,-9.7882 25.7774,-31.285 25.4148,-47.3879 -0.7387,-32.6861 -28.0108,-44.1297 -28.0108,-54.8734 0,-5.4568 28.8271,-25.35594 28.0188,-49.72834 -0.7854,-23.6472 -36.2455,-40.9851 -31.2864,-51.7047" /><text
       xml:space="preserve"
       style="font-style:normal;font-weight:normal;font-size:69.45821381px;line-height:125%;font-family:sans-serif;letter-spacing:0px;word-spacing:0px;fill:#000000;fill-opacity:1;stroke:none;stroke-width:1px;stroke-linecap:butt;stroke-linejoin:miter;stroke-opacity:1"
       x="212.7959"
       y="-202.60431"
       id="text3377"
       sodipodi:linespacing="125%"
       transform="scale(1,-1)"><tspan
         sodipodi:role="line"
         id="tspan3379"
         x="212.7959"
         y="-202.60431"
         style="font-size:293.38751221px"><tspan
   style="font-size:293.38751221px;fill:#ff0000"
   id="tspan3421">Fair</tspan>Skill</tspan></text>
</g></svg>